<?xml version="1.0" encoding="UTF-8"?>
<svg width="12px" height="9px" viewBox="0 0 12 9" version="1.1" xmlns="http://www.w3.org/2000/svg" xmlns:xlink="http://www.w3.org/1999/xlink">
    <title>checked</title>
    <g id="Page-1" stroke="none" stroke-width="1" fill="none" fill-rule="evenodd">
        <g id="checked" transform="translate(-1.011719, -0.964844)" fill-rule="nonzero">
            <path d="M5.066409,9.777344 C5.300779,10.011744 5.699219,10.011744 5.933599,9.777344 L12.824219,2.886724 C13.058619,2.652344 13.058619,2.253904 12.824219,2.019534 L11.980519,1.175784 C11.746119,0.941406 11.371119,0.941406 11.136719,1.175784 L5.511719,6.800784 L2.863279,4.175784 C2.628909,3.941404 2.253909,3.941404 2.019529,4.175784 L1.175779,5.019534 C0.941407,5.253904 0.941407,5.652344 1.175779,5.886724 L5.066409,9.777344 Z" id="Path" fill="#4F4F4F"></path>
            <path d="M5.511719,6.800784 L4.807759,7.511024 L5.514859,8.211864 L6.218829,7.507884 L5.511719,6.800784 Z M2.863279,4.175784 L2.156169,4.882894 L2.159329,4.886024 L2.863279,4.175784 Z M4.359299,10.484444 C4.984199,11.109344 6.015799,11.109344 6.640699,10.484444 L5.226489,9.070234 C5.312469,8.984254 5.415939,8.953124 5.499999,8.953124 C5.584059,8.953124 5.687529,8.984254 5.773509,9.070234 L4.359299,10.484444 Z M6.640699,10.484444 L13.531319,3.593824 L12.117119,2.179614 L5.226489,9.070234 L6.640699,10.484444 Z M13.531319,3.593824 C14.156219,2.968924 14.156219,1.937324 13.531319,1.312424 L12.117119,2.726634 C12.031119,2.640654 12.000019,2.537184 12.000019,2.453124 C12.000019,2.369064 12.031119,2.265594 12.117119,2.179614 L13.531319,3.593824 Z M13.531319,1.312424 L12.687619,0.468675 L11.273319,1.882884 L12.117119,2.726634 L13.531319,1.312424 Z M12.687619,0.468675 C12.062719,-0.156225 11.054519,-0.156225 10.429619,0.468675 L11.843819,1.882884 C11.687719,2.039034 11.429519,2.039034 11.273319,1.882884 L12.687619,0.468675 Z M10.429619,0.468675 L4.804609,6.093674 L6.218829,7.507884 L11.843819,1.882884 L10.429619,0.468675 Z M6.215679,6.090544 L3.567239,3.465544 L2.159329,4.886024 L4.807759,7.511024 L6.215679,6.090544 Z M3.570389,3.468674 C2.945489,2.843774 1.937329,2.843774 1.312429,3.468674 L2.726639,4.882884 C2.570489,5.039034 2.312329,5.039034 2.156179,4.882884 L3.570389,3.468674 Z M1.312429,3.468674 L0.468675,4.312424 L1.882889,5.726634 L2.726639,4.882884 L1.312429,3.468674 Z M0.468675,4.312424 C-0.156225,4.937324 -0.156225,5.968924 0.468675,6.593824 L1.882889,5.179614 C1.968869,5.265594 2,5.369064 2,5.453124 C2,5.537184 1.968869,5.640654 1.882889,5.726634 L0.468675,4.312424 Z M0.468675,6.593824 L4.359299,10.484444 L5.773509,9.070234 L1.882889,5.179614 L0.468675,6.593824 Z" id="Shape"></path>
        </g>
    </g>
</svg>